<?xml version="1.0" encoding="UTF-8"?>
<!--Generator: Apple Native CoreSVG 341-->
<!DOCTYPE svg
PUBLIC "-//W3C//DTD SVG 1.1//EN"
       "http://www.w3.org/Graphics/SVG/1.1/DTD/svg11.dtd">
<svg version="1.1" xmlns="http://www.w3.org/2000/svg" xmlns:xlink="http://www.w3.org/1999/xlink" viewBox="0 0 134.57 84.8828">
 <g>
  <rect height="84.8828" opacity="0" width="134.57" x="0" y="0"/>
  <path d="M26.3867 84.7461C40.8984 84.7461 52.6953 72.9492 52.6953 58.3984C52.6953 43.8281 40.9375 32.0898 26.3867 32.0898C11.6992 32.0898 0 43.8281 0 58.3984C0 72.9688 11.7969 84.7461 26.3867 84.7461ZM26.3867 76.4258C16.3672 76.4258 8.33984 68.418 8.33984 58.3984C8.33984 48.4375 16.4062 40.3906 26.3867 40.3906C36.3281 40.3906 44.3945 48.4375 44.3945 58.3984C44.3945 68.3789 36.3281 76.4258 26.3867 76.4258ZM108.262 84.7461C122.793 84.7461 134.57 72.9492 134.57 58.3984C134.57 43.8281 122.812 32.0898 108.262 32.0898C93.6719 32.0898 81.8555 43.8281 81.8555 58.3984C81.8555 72.9688 93.6719 84.7461 108.262 84.7461ZM108.262 76.4258C98.2422 76.4258 90.2148 68.418 90.2148 58.3984C90.2148 48.4375 98.2617 40.3906 108.262 40.3906C118.203 40.3906 126.27 48.4961 126.27 58.3984C126.27 68.3789 118.203 76.4258 108.262 76.4258ZM68.2422 4.12109C68.2422 6.40625 70.0781 8.22266 72.3633 8.22266L83.0469 8.22266C83.418 8.22266 83.5547 8.33984 83.6914 8.61328L104.648 60.8789L112.383 58.2422L90.1953 3.33984C89.2578 1.01562 87.6172 0 84.8438 0L72.3633 0C70.0781 0 68.2422 1.85547 68.2422 4.12109ZM95.8398 32.1289L95.8398 24.4141L51.9336 30.2148L51.9336 37.9492ZM61.7188 63.0859L61.7188 55.3711L27.1094 55.3711L27.1094 63.0859ZM66.582 67.9102C71.7773 67.9102 75.957 63.7109 75.957 58.5547C75.957 53.3594 71.7773 49.1992 66.582 49.1992C61.3867 49.1992 57.2266 53.3008 57.168 58.5352C57.0703 63.6719 61.3086 67.9102 66.582 67.9102ZM66.6211 61.2891C65.0391 61.2891 63.7891 60.0586 63.7891 58.6523C63.7891 57.0898 65.0586 55.8203 66.6211 55.8203C68.1445 55.8203 69.3555 57.0508 69.3555 58.6523C69.3555 60.0977 68.1836 61.2891 66.6211 61.2891ZM26.3867 64.6289C29.8438 64.6289 32.6367 61.8555 32.6367 58.3984C32.6367 54.9023 29.8828 52.1484 26.3867 52.1484C22.8906 52.1484 20.1758 54.8633 20.1367 58.3789C20.0977 61.8555 22.832 64.6289 26.3867 64.6289ZM108.262 64.6484C111.738 64.6484 114.492 61.8555 114.492 58.3984C114.492 54.9023 111.777 52.168 108.262 52.168C104.766 52.168 102.031 54.8633 101.992 58.3789C101.953 61.8555 104.727 64.6484 108.262 64.6484ZM64.4531 52.168L71.4062 56.0547L97.9102 27.832L88.0273 27.7148ZM22.793 56.6016L29.6484 60.4688L53.9453 34.6484L47.1289 30.3906ZM60.1953 56.6016L66.9922 51.6992L48.3398 17.3242L40.3516 19.0625ZM31.7578 16.25C31.7578 18.5156 33.6133 20.3516 35.8789 20.3516L54.5703 20.3516C56.8555 20.3516 58.6914 18.5156 58.6914 16.25C58.6914 14.0039 56.8164 12.1289 54.5703 12.1289L35.8789 12.1289C33.6328 12.1289 31.7578 14.0039 31.7578 16.25Z" fill="white"/>
 </g>
</svg>
